<svg width="30" height="31" viewBox="0 0 30 31" fill="none" xmlns="http://www.w3.org/2000/svg">
<circle cx="13.7863" cy="13.7863" r="13.7863" fill="#F3F3F3"/>
<path d="M10.2497 18.8937V7.91449H22.2913V18.8937C22.2913 19.3633 22.1048 19.8137 21.7727 20.1458C21.4406 20.4779 20.9902 20.6645 20.5205 20.6645H8.47884M17.333 10.7478H19.458V13.5812H17.333V10.7478ZM12.3747 16.4145H20.1663H12.3747ZM12.3747 13.5812H15.208H12.3747ZM12.3747 10.7478H15.208H12.3747ZM10.2497 18.8937C10.2497 19.3633 10.0631 19.8137 9.73101 20.1458C9.39891 20.4779 8.9485 20.6645 8.47884 20.6645C8.00919 20.6645 7.55877 20.4779 7.22667 20.1458C6.89458 19.8137 6.70801 19.3633 6.70801 18.8937V10.7478H10.2674L10.2497 18.8937Z" stroke="#1D1D1E"/>
<ellipse cx="23.5007" cy="23.7895" rx="5.41667" ry="5.83333" fill="#F6F6F6"/>
<path d="M23.5007 17.9562C20.5139 17.9562 18.084 20.573 18.084 23.7895C18.084 27.006 20.5139 29.6228 23.5007 29.6228C26.4874 29.6228 28.9173 27.006 28.9173 23.7895C28.9173 20.573 26.4874 17.9562 23.5007 17.9562ZM23.5007 28.4562C21.1114 28.4562 19.1673 26.3626 19.1673 23.7895C19.1673 21.2164 21.1114 19.1228 23.5007 19.1228C25.8899 19.1228 27.834 21.2164 27.834 23.7895C27.834 26.3626 25.8899 28.4562 23.5007 28.4562Z" fill="black"/>
<path d="M24.9265 20.8156L23.9883 20.2323L22.3633 23.2634L25.1779 25.0134L25.7195 24.003L23.8431 22.8363L24.9265 20.8156Z" fill="black"/>
</svg>
