<svg width="30" height="30" viewBox="0 0 30 30" fill="none" xmlns="http://www.w3.org/2000/svg">
<g clip-path="url(#clip0_71_2)">
<path d="M12.2595 15.9173H20.1923M12.2595 13.1287H15.1441M12.2595 10.34H15.1441M10.096 18.3574C10.096 18.8196 9.90608 19.263 9.56797 19.5898C9.22987 19.9167 8.77129 20.1003 8.29313 20.1003M10.096 18.3574L10.1141 10.34H6.49023V18.3574C6.49023 18.8196 6.68018 19.263 7.01829 19.5898C7.3564 19.9167 7.81497 20.1003 8.29313 20.1003M10.096 18.3574V7.55139H22.3557V18.3574M8.29313 20.1003H20.1923M17.3076 10.34H19.4711V13.1287H17.3076V10.34Z" stroke="#1D1D1E"/>
</g>
<path d="M23.6542 17.73C20.7381 17.73 18.3657 20.232 18.3657 23.3073C18.3657 26.3826 20.7381 28.8846 23.6542 28.8846C26.5703 28.8846 28.9427 26.3826 28.9427 23.3073C28.9427 20.232 26.5703 17.73 23.6542 17.73ZM23.6542 27.7691C21.3215 27.7691 19.4234 25.7674 19.4234 23.3073C19.4234 20.8471 21.3215 18.8454 23.6542 18.8454C25.987 18.8454 27.885 20.8471 27.885 23.3073C27.885 25.7674 25.987 27.7691 23.6542 27.7691Z" fill="#1D1D1E"/>
<path d="M25.0469 20.4639L24.1309 19.9061L22.5443 22.8042L25.2923 24.4774L25.8211 23.5113L23.9892 22.3959L25.0469 20.4639Z" fill="#1D1D1E"/>
<defs>
<clipPath id="clip0_71_2">
<rect width="17.3078" height="16.7319" fill="white" transform="translate(5.76904 5.45996)"/>
</clipPath>
</defs>
</svg>
